<?xml version="1.0" standalone="no"?>
<!DOCTYPE svg PUBLIC "-//W3C//DTD SVG 20010904//EN"
 "http://www.w3.org/TR/2001/REC-SVG-20010904/DTD/svg10.dtd">
<svg version="1.0" xmlns="http://www.w3.org/2000/svg"
 width="1080.000000pt" height="1080.000000pt" viewBox="0 0 1080.000000 1080.000000"
 preserveAspectRatio="xMidYMid meet">

<g transform="translate(0.000000,1080.000000) scale(0.100000,-0.100000)"
fill="#000000" stroke="none">
<path d="M3372 5843 c3 -121 5 -138 20 -141 16 -3 18 9 20 115 l3 118 137 0
c75 0 134 4 131 9 -15 24 -78 36 -193 36 l-121 0 3 -137z"/>
<path d="M3840 5925 c30 -80 -4 -187 -77 -238 -45 -32 -45 -41 -2 -52 20 -5
34 0 59 21 66 56 88 158 51 240 -22 48 -47 71 -31 29z"/>
<path d="M4367 5854 c-4 -4 -7 -22 -7 -41 0 -32 -1 -33 -42 -33 -67 -1 -123
-31 -150 -82 -21 -40 -23 -58 -28 -268 l-5 -225 -32 -3 c-25 -2 -33 -8 -33
-23 0 -16 7 -19 55 -19 l55 0 0 195 c0 215 10 281 47 326 34 40 57 51 123 58
l55 6 0 55 c0 41 -4 55 -15 58 -9 1 -19 0 -23 -4z"/>
<path d="M4143 5835 c-3 -9 -3 -19 1 -22 7 -7 36 16 36 28 0 15 -30 10 -37 -6z"/>
<path d="M5155 5838 c-3 -7 -6 -152 -7 -323 l-3 -310 -32 -3 c-25 -2 -33 -8
-33 -23 0 -16 7 -19 55 -19 l55 0 -2 342 c-2 262 -6 342 -15 346 -7 2 -15 -2
-18 -10z"/>
<path d="M5410 5845 c-1 -23 186 -493 193 -486 5 5 -31 110 -79 235 -78 204
-112 279 -114 251z"/>
<path d="M5893 5793 c-18 -42 -320 -776 -370 -900 -3 -7 -15 -13 -27 -13 -22
0 -46 -17 -46 -32 0 -5 26 -8 57 -6 l56 3 203 495 c111 272 200 498 198 502
-3 4 -14 8 -25 8 -15 0 -27 -15 -46 -57z"/>
<path d="M6698 5528 l-3 -323 -32 -3 c-25 -2 -33 -8 -33 -23 0 -16 7 -19 55
-19 l55 0 -2 342 c-3 316 -4 343 -20 346 -17 3 -18 -19 -20 -320z"/>
<path d="M7010 5829 c0 -11 5 -17 10 -14 6 3 10 13 10 21 0 8 -4 14 -10 14 -5
0 -10 -9 -10 -21z"/>
<path d="M4715 5785 c-50 -17 -117 -89 -133 -142 -25 -85 -6 -218 38 -258 17
-16 18 -15 5 22 -18 49 -18 147 -1 196 42 117 166 181 285 147 54 -15 49 -3
-10 25 -61 28 -123 32 -184 10z"/>
<path d="M6266 5785 c-47 -17 -91 -57 -119 -110 -31 -58 -31 -193 0 -252 32
-58 44 -61 27 -6 -55 183 63 355 234 341 32 -3 66 -9 77 -13 16 -6 16 -3 -4
13 -51 41 -143 53 -215 27z"/>
<path d="M7120 5789 c-33 -13 -68 -47 -88 -84 -14 -25 -18 -72 -22 -265 l-5
-235 -32 -3 c-25 -2 -33 -8 -33 -23 0 -16 7 -19 54 -19 l55 0 3 238 3 239 28
42 c46 69 153 101 233 71 25 -10 26 -9 13 6 -33 40 -147 57 -209 33z"/>
<path d="M7485 5755 c20 -64 25 -133 23 -330 l-3 -220 -32 -3 c-25 -2 -33 -8
-33 -23 0 -16 7 -19 55 -19 l55 0 0 220 c0 238 -7 295 -46 355 -14 22 -23 31
-19 20z"/>
<path d="M3372 5453 c3 -131 5 -148 21 -151 15 -3 17 8 17 128 l0 132 149 -4
c82 -1 147 0 145 3 -2 4 -19 14 -38 23 -26 12 -65 16 -165 16 l-132 0 3 -147z"/>
<path d="M3857 5520 c4 -14 8 -55 8 -91 -1 -55 -5 -73 -28 -108 -62 -94 -147
-121 -379 -121 -153 0 -158 -1 -158 -21 0 -20 2 -21 213 -17 233 5 253 9 323
70 83 73 98 207 32 289 l-19 24 8 -25z"/>
<path d="M6545 5280 c-75 -78 -211 -109 -320 -72 l-60 20 30 -24 c88 -71 274
-69 356 4 26 23 30 33 27 65 l-3 39 -30 -32z"/>
<path d="M4990 5275 c-36 -39 -122 -76 -188 -82 -53 -5 -102 4 -182 34 -8 3 1
-7 20 -21 95 -73 261 -73 355 -1 28 21 35 33 35 61 0 41 -8 43 -40 9z"/>
</g>
</svg>
